<?xml version="1.0" standalone="no"?>
<!DOCTYPE svg PUBLIC "-//W3C//DTD SVG 20010904//EN"
 "http://www.w3.org/TR/2001/REC-SVG-20010904/DTD/svg10.dtd">
<svg version="1.0" xmlns="http://www.w3.org/2000/svg"
 width="512.000000pt" height="512.000000pt" viewBox="0 0 512.000000 512.000000"
 preserveAspectRatio="xMidYMid meet">

<g transform="translate(0.000000,512.000000) scale(0.100000,-0.100000)"
fill="#000000" stroke="none">
<path d="M2480 5102 c-19 -10 -48 -36 -65 -56 l-30 -38 -3 -516 c-3 -580 -6
-553 71 -616 87 -70 231 -35 278 68 17 38 19 76 19 541 0 560 3 539 -73 599
-49 39 -142 48 -197 18z"/>
<path d="M3695 4776 c-16 -8 -42 -26 -56 -42 -45 -50 -509 -849 -516 -887 -18
-113 69 -209 190 -209 94 0 101 8 379 481 256 434 268 459 254 535 -19 99
-155 165 -251 122z"/>
<path d="M4541 3963 c-16 -7 -703 -418 -801 -481 -85 -53 -114 -101 -108 -175
6 -71 44 -128 103 -157 85 -41 89 -40 547 235 227 137 428 262 445 278 113
106 27 309 -129 306 -24 0 -49 -3 -57 -6z"/>
<path d="M3945 2721 c-48 -22 -69 -44 -90 -94 -28 -69 -9 -164 43 -210 49 -44
72 -46 577 -47 319 0 493 4 520 11 81 23 134 113 120 205 -8 59 -42 105 -95
132 -44 22 -46 22 -540 22 -459 0 -498 -2 -535 -19z"/>
<path d="M3778 2011 c-114 -37 -167 -191 -96 -283 19 -24 144 -101 454 -277
381 -218 434 -245 481 -249 43 -4 60 0 95 21 43 25 79 76 92 129 9 40 -12 114
-43 146 -14 15 -217 136 -451 269 -434 247 -469 264 -532 244z"/>
<path d="M1745 1466 c-35 -16 -63 -45 -100 -106 -25 -42 -22 -40 54 35 45 44
81 81 81 82 0 4 -2 4 -35 -11z"/>
<path d="M3215 1456 c-37 -16 -92 -77 -101 -112 -19 -74 -6 -103 245 -538 132
-231 249 -428 258 -439 26 -29 76 -47 131 -47 117 0 203 118 167 230 -11 34
-474 840 -499 869 -43 48 -136 66 -201 37z"/>
<path d="M1649 1193 c-165 -166 -267 -276 -284 -308 -23 -41 25 3 269 245 163
162 295 299 293 304 -2 6 -7 11 -13 13 -5 2 -124 -113 -265 -254z"/>
<path d="M1577 922 c-318 -318 -407 -413 -407 -432 0 -20 77 52 415 390 362
362 442 450 407 450 -4 0 -190 -183 -415 -408z"/>
<path d="M2507 1268 c-58 -16 -103 -66 -117 -130 -8 -37 -11 -196 -8 -533 3
-479 3 -480 26 -516 82 -133 293 -104 331 44 15 62 15 956 0 1012 -6 22 -20
52 -30 66 -36 51 -130 77 -202 57z"/>
<path d="M1525 670 c-233 -233 -287 -292 -277 -302 10 -10 63 38 270 247 143
145 267 279 280 303 12 23 21 42 20 42 -2 0 -133 -130 -293 -290z"/>
<path d="M1460 405 c-67 -67 -70 -82 -10 -41 28 19 92 106 78 106 -2 0 -33
-29 -68 -65z"/>
</g>
</svg>
